<?xml version="1.0" encoding="UTF-8" standalone="no"?>
<!-- Created with Inkscape (http://www.inkscape.org/) -->

<svg
   xmlns:dc="http://purl.org/dc/elements/1.1/"
   xmlns:cc="http://creativecommons.org/ns#"
   xmlns:rdf="http://www.w3.org/1999/02/22-rdf-syntax-ns#"
   xmlns:svg="http://www.w3.org/2000/svg"
   xmlns="http://www.w3.org/2000/svg"
   xmlns:sodipodi="http://sodipodi.sourceforge.net/DTD/sodipodi-0.dtd"
   xmlns:inkscape="http://www.inkscape.org/namespaces/inkscape"
   width="5.4283342mm"
   height="5.5492377mm"
   viewBox="0 0 5.4283342 5.5492378"
   version="1.1"
   id="svg8"
   inkscape:version="0.92.1 r15371"
   sodipodi:docname="search.svg">
  <defs
     id="defs2" />
  <sodipodi:namedview
     id="base"
     pagecolor="#ffffff"
     bordercolor="#666666"
     borderopacity="1.0"
     inkscape:pageopacity="0.0"
     inkscape:pageshadow="2"
     inkscape:zoom="5.6"
     inkscape:cx="52.427353"
     inkscape:cy="3.1687873"
     inkscape:document-units="mm"
     inkscape:current-layer="layer1"
     showgrid="false"
     fit-margin-top="0"
     fit-margin-left="0"
     fit-margin-right="0"
     fit-margin-bottom="0"
     inkscape:window-width="1920"
     inkscape:window-height="1017"
     inkscape:window-x="-8"
     inkscape:window-y="-8"
     inkscape:window-maximized="1" />
  <metadata
     id="metadata5">
    <rdf:RDF>
      <cc:Work
         rdf:about="">
        <dc:format>image/svg+xml</dc:format>
        <dc:type
           rdf:resource="http://purl.org/dc/dcmitype/StillImage" />
        <dc:title></dc:title>
      </cc:Work>
    </rdf:RDF>
  </metadata>
  <g
     inkscape:label="Layer 1"
     inkscape:groupmode="layer"
     id="layer1"
     transform="translate(-97.322595,-50.569548)">
    <path
       style="fill:#61757e;stroke-width:0.26458332"
       d="m 97.341272,55.904079 c -0.0779,-0.126072 0.0951,-0.443518 0.38454,-0.705434 0.4404,-0.398559 0.4988,-0.68278 0.35816,-1.743027 -0.15459,-1.165297 -0.10347,-1.331396 0.63782,-2.072691 1.07337,-1.073366 2.196068,-1.084592 3.248188,-0.03248 1.05271,1.05271 1.04094,2.174762 -0.0341,3.249786 -0.72388,0.72388 -0.92596,0.791239 -1.951958,0.65061 -0.92882,-0.127309 -1.23312,-0.05894 -1.61478,0.362793 -0.51062,0.564222 -0.80693,0.647949 -1.02788,0.290441 z m 4.079188,-1.887444 c 0.29104,-0.291042 0.52916,-0.767292 0.52916,-1.058334 0,-0.681451 -0.90605,-1.5875 -1.5875,-1.5875 -0.29104,0 -0.767288,0.238125 -1.058328,0.529167 -0.29104,0.291042 -0.52917,0.767292 -0.52917,1.058333 0,0.681452 0.90605,1.5875 1.587498,1.5875 0.29104,0 0.76729,-0.238125 1.05834,-0.529166 z"
       id="path58"
       inkscape:connector-curvature="0" />
  </g>
</svg>
